:SAMPLES-PER-SECOND 30
:FULLY-SPECIFIED
:DEGREES
97
root  62.5698 37.2989 2.01927 31.9905 85.2792 34.0782
RightUpLeg  16.2908 -1.53821 -4.09739
RightLeg  30.1548 17.2908 4.88932
RightFoot  4.66963 -1.04896 6.75496
RightToes  5.82063e-011 -1.59028e-015 9.93923e-017
Spine  -0.119885 4.14288 3.22952
Spine1  12.4874 6.44456 -8.48784
HEad  -23.4291 -5.69253 9.70352
LeftShoulder1  9.93923e-017 0 1.22299e-017
LeftArm  -5.55624 56.9734 -54.8155
LeftForeArm  -1.58859 -1.39892 -4.62889
LeftHand  1.25535 10.0768 -6.22972
RightShoulder  1.98785e-016 -4.96962e-017 1.55301e-017
RightArm  12.6519 -13.6528 83.1429
RightForeArm  -33.9412 34.8085 -31.2512
RightHand  1.88759 -12.5152 -13.2329
LeftUpLeg  -27.414 -11.6031 -2.90126
LeftLeg  19.2047 3.37502 4.40704
LeftFoot  7.24614 0.0759635 -0.281623
LeftToes  2.21007e-009 5.55039e-011 -9.07147e-011
98
root  64.3725 37.1677 1.94701 48.4638 84.1223 50.831
RightUpLeg  11.5279 -1.10934 -6.51818
RightLeg  40.5785 14.8453 4.44027
RightFoot  17.4476 -2.50398 9.05291
RightToes  5.82063e-011 -1.59028e-015 9.93923e-017
Spine  1.22965 3.66324 0.0880088
Spine1  12.453 5.62626 -8.58406
HEad  -23.8561 -4.91713 9.06387
LeftShoulder1  9.93923e-017 0 1.22299e-017
LeftArm  -10.5034 53.1371 -61.4327
LeftForeArm  -2.56846 -1.40323 -4.89714
LeftHand  1.20421 10.1192 -8.33108
RightShoulder  1.98785e-016 -4.96962e-017 1.55301e-017
RightArm  15.879 -17.9489 85.8695
RightForeArm  -35.1628 29.6206 -27.0923
RightHand  1.71951 -12.1329 -11.5931
LeftUpLeg  -26.4117 -9.31093 -6.19704
LeftLeg  23.9211 0.692514 4.85347
LeftFoot  3.21194 -0.105334 0.815022
LeftToes  2.21007e-009 5.55039e-011 -9.07147e-011
99
root  66.1192 37.1976 1.89133 58.3128 83.3522 60.7883
RightUpLeg  5.90654 -0.624859 -7.66423
RightLeg  49.2339 11.5002 1.54254
RightFoot  26.2359 -4.08713 11.4391
RightToes  5.82063e-011 -1.59028e-015 9.93923e-017
Spine  1.8807 3.00003 -2.53566
Spine1  12.8095 4.40613 -8.2246
HEad  -23.5914 -3.83454 8.01716
LeftShoulder1  9.93923e-017 0 1.22299e-017
LeftArm  -14.5437 47.863 -67.9454
LeftForeArm  -2.5829 -1.97473 -5.08313
LeftHand  1.16279 9.77972 -9.16746
RightShoulder  1.98785e-016 -4.96962e-017 1.55301e-017
RightArm  24.6032 -21.9358 88.5011
RightForeArm  -42.2389 23.3435 -23.0821
RightHand  1.56552 -11.7551 -9.97994
LeftUpLeg  -24.4933 -7.6041 -8.46038
LeftLeg  26.6694 -1.31805 4.62045
LeftFoot  -1.16099 -0.140403 1.25011
LeftToes  2.21007e-009 5.55039e-011 -9.07147e-011
100
root  67.9865 37.5028 1.85348 65.0377 83.4537 67.502
RightUpLeg  0.319572 -0.371176 -7.35992
RightLeg  55.2797 9.55235 -1.22883
RightFoot  27.6611 -4.30315 11.5944
RightToes  5.82063e-011 -1.59028e-015 9.93923e-017
Spine  1.73949 2.20592 -4.05526
Spine1  12.8841 3.06229 -7.26654
HEad  -22.1383 -3.00177 7.23423
LeftShoulder1  9.93923e-017 0 1.22299e-017
LeftArm  -15.9171 42.1673 -73.4664
LeftForeArm  -3.64364 -4.90811 -4.74876
LeftHand  1.13748 9.06592 -7.97459
RightShoulder  1.98785e-016 -4.96962e-017 1.55301e-017
RightArm  23.9682 -26.0957 89.6742
RightForeArm  -39.8674 19.3168 -13.7826
RightHand  1.46556 -11.5793 -8.54121
LeftUpLeg  -21.2075 -7.46126 -9.26996
LeftLeg  26.8316 -2.00554 4.28517
LeftFoot  -3.85278 -0.095328 0.996291
LeftToes  2.21007e-009 5.55039e-011 -9.07147e-011
101
root  69.9336 37.978 1.83538 71.8849 84.4781 74.42
RightUpLeg  -4.83012 -0.217444 -5.77319
RightLeg  58.6207 9.52806 -1.58177
RightFoot  23.2436 -3.06989 9.28311
RightToes  5.82063e-011 -1.59028e-015 9.93923e-017
Spine  1.38481 1.35029 -4.54564
Spine1  12.5465 1.67354 -5.80524
HEad  -20.0422 -2.43743 6.74005
LeftShoulder1  9.93923e-017 0 1.22299e-017
LeftArm  -10.2639 36.75 -78.1244
LeftForeArm  -10.598 -11.6544 -2.42566
LeftHand  1.10628 8.32341 -6.0686
RightShoulder  1.98785e-016 -4.96962e-017 1.55301e-017
RightArm  11.2197 -30.985 88.9779
RightForeArm  -24.6502 15.6048 -1.2449
RightHand  1.38855 -11.6643 -6.64047
LeftUpLeg  -16.9067 -8.67848 -8.89643
LeftLeg  25.2708 -1.63735 4.06312
LeftFoot  -5.71005 -0.0639683 0.690517
LeftToes  2.21007e-009 5.55039e-011 -9.07147e-011
102
root  71.884 38.4001 1.85436 86.1537 85.8702 88.7937
RightUpLeg  -9.50993 -0.0253271 -3.67105
RightLeg  59.182 10.0181 -0.769084
RightFoot  16.9548 -1.85278 6.90533
RightToes  5.82063e-011 -1.59028e-015 9.93923e-017
Spine  1.21895 0.414664 -5.01202
Spine1  11.9286 0.070288 -3.83205
HEad  -18.2476 -1.65344 6.22854
LeftShoulder1  9.93923e-017 0 1.22299e-017
LeftArm  7.60362 32.2394 -82.16
LeftForeArm  -30.1114 -20.1533 6.90503
LeftHand  1.05367 7.63988 -4.57462
RightShoulder  1.98785e-016 -4.96962e-017 1.55301e-017
RightArm  1.84454 -37.0821 87.2898
RightForeArm  -13.5538 11.344 4.24363
RightHand  1.30055 -11.8516 -4.26238
LeftUpLeg  -12.4868 -9.25779 -8.14479
LeftLeg  23.388 -2.28419 3.70795
LeftFoot  -7.61119 -0.0537336 0.544678
LeftToes  2.21007e-009 5.55039e-011 -9.07147e-011
103
root  73.8496 38.7101 1.91118 116.071 86.6016 118.751
RightUpLeg  -13.7955 0.0198852 -1.80772
RightLeg  57.1616 10.0248 -0.616008
RightFoot  11.6858 -1.21498 5.55486
RightToes  5.82063e-011 -1.59028e-015 9.93923e-017
Spine  1.33541 -0.734486 -6.16913
Spine1  10.9381 -1.887 -1.10012
HEad  -17.149 -0.448072 5.68172
LeftShoulder1  9.93923e-017 0 1.22299e-017
LeftArm  18.2573 28.4805 -84.2605
LeftForeArm  -41.4118 -27.2684 17.1123
LeftHand  0.987003 6.99057 -3.60437
RightShoulder  1.98785e-016 -4.96962e-017 1.55301e-017
RightArm  -1.12032 -43.9222 84.686
RightForeArm  -9.07811 10.0155 4.94701
RightHand  1.2431 -11.9775 -2.74783
LeftUpLeg  -8.37085 -7.75388 -7.28905
LeftLeg  21.6434 -5.44172 3.03311
LeftFoot  -9.00376 -0.0446588 0.405631
LeftToes  2.21007e-009 5.55039e-011 -9.07147e-011
104
root  75.7835 38.9674 1.98268 147.759 85.8834 150.57
RightUpLeg  -17.4902 -0.210526 -0.586534
RightLeg  52.8114 9.51689 -1.10536
RightFoot  7.67474 -0.83008 4.5301
RightToes  5.82063e-011 -1.59028e-015 9.93923e-017
Spine  1.86514 -2.06536 -7.89091
Spine1  9.77582 -4.01866 2.33178
HEad  -16.6599 0.811904 5.27457
LeftShoulder1  9.93923e-017 0 1.22299e-017
LeftArm  14.8103 24.5258 -84.1986
LeftForeArm  -36.8749 -34.1694 21.3992
LeftHand  0.944961 6.63712 -2.8284
RightShoulder  1.98785e-016 -4.96962e-017 1.55301e-017
RightArm  3.70119 -50.7389 81.0859
RightForeArm  -13.1931 11.1369 4.21752
RightHand  1.25005 -11.9624 -2.94018
LeftUpLeg  -4.30841 -5.3463 -6.18885
LeftLeg  19.6715 -9.68865 2.28006
LeftFoot  -9.41941 -0.0392297 0.341263
LeftToes  2.21007e-009 5.55039e-011 -9.07147e-011
105
root  77.6322 39.113 2.06277 162.365 84.2531 165.511
RightUpLeg  -20.2506 -0.550112 -0.282735
RightLeg  46.2327 9.1299 -1.153
RightFoot  4.81929 -0.577615 3.67674
RightToes  5.82063e-011 -1.59028e-015 9.93923e-017
Spine  2.69792 -3.27945 -9.84799
Spine1  8.95589 -5.91124 5.6325
HEad  -16.6658 1.76597 4.97694
LeftShoulder1  9.93923e-017 0 1.22299e-017
LeftArm  12.8812 19.8362 -83.2871
LeftForeArm  -34.2614 -40.7946 24.7344
LeftHand  0.949851 6.7045 -2.01068
RightShoulder  1.98785e-016 -4.96962e-017 1.55301e-017
RightArm  11.3766 -56.9199 76.3065
RightForeArm  -20.3878 13.659 1.75706
RightHand  1.27542 -11.8093 -3.84445
LeftUpLeg  -0.241217 -3.43395 -5.1603
LeftLeg  17.7834 -13.1683 1.84155
LeftFoot  -9.78478 -0.0447288 0.516948
LeftToes  2.21007e-009 5.55039e-011 -9.07147e-011
106
root  79.5017 39.0612 2.15951 165.448 82.8083 168.847
RightUpLeg  -22.0334 -0.853243 -0.678936
RightLeg  37.4637 9.53754 -0.341701
RightFoot  3.69946 -0.506995 3.44845
RightToes  5.82063e-011 -1.59028e-015 9.93923e-017
Spine  3.27171 -4.19622 -11.4858
Spine1  8.41537 -7.2392 7.90389
HEad  -16.8768 2.40355 4.60477
LeftShoulder1  9.93923e-017 0 1.22299e-017
LeftArm  12.5793 14.9568 -82.0904
LeftForeArm  -33.8533 -45.5465 27.7316
LeftHand  0.965518 6.84843 -1.29226
RightShoulder  1.98785e-016 -4.96962e-017 1.55301e-017
RightArm  17.9633 -62.2009 70.531
RightForeArm  -25.6856 15.7941 -1.35501
RightHand  1.28201 -11.6998 -4.27188
LeftUpLeg  3.48954 -2.04777 -4.27648
LeftLeg  16.6516 -15.5435 1.64305
LeftFoot  -10.869 -0.0478685 0.733913
LeftToes  2.21007e-009 5.55039e-011 -9.07147e-011
107
root  81.433 38.9506 2.24933 168.244 81.9728 171.497
RightUpLeg  -22.9261 -1.0477 -0.924373
RightLeg  26.0857 10.2407 0.341178
RightFoot  3.88611 -0.558345 3.74505
RightToes  5.82063e-011 -1.59028e-015 9.93923e-017
Spine  3.32966 -4.91456 -11.9087
Spine1  7.76408 -8.03036 9.25426
HEad  -16.8095 2.82545 4.09995
LeftShoulder1  9.93923e-017 0 1.22299e-017
LeftArm  12.2494 10.9503 -81.0039
LeftForeArm  -33.7553 -48.3317 29.764
LeftHand  0.96403 6.84589 -0.837593
RightShoulder  1.98785e-016 -4.96962e-017 1.55301e-017
RightArm  23.0587 -66.318 64.0245
RightForeArm  -27.5365 16.5416 -2.90292
RightHand  1.30096 -11.7949 -4.40696
LeftUpLeg  6.96076 -0.882225 -2.96413
LeftLeg  15.2956 -17.1643 1.49036
LeftFoot  -11.5995 -0.0426983 0.519277
LeftToes  2.21007e-009 5.55039e-011 -9.07147e-011
108
root  83.2879 38.8924 2.32119 172.108 81.4861 174.969
RightUpLeg  -22.6075 -0.0900426 -1.39919
RightLeg  12.013 8.43787 0.482584
RightFoot  3.62304 -0.598962 4.08894
RightToes  5.82063e-011 -1.59028e-015 9.93923e-017
Spine  3.14461 -5.49106 -11.5489
Spine1  7.37164 -8.63385 10.4351
HEad  -16.5401 3.13805 3.5222
LeftShoulder1  9.93923e-017 0 1.22299e-017
LeftArm  11.4077 7.98993 -80.2027
LeftForeArm  -33.9833 -49.791 30.9083
LeftHand  0.96767 6.87982 -0.361267
RightShoulder  1.98785e-016 -4.96962e-017 1.55301e-017
RightArm  25.7629 -68.771 57.2157
RightForeArm  -25.197 15.9575 -2.12036
RightHand  1.35805 -12.0652 -4.81849
LeftUpLeg  10.4275 0.0759628 -1.28943
LeftLeg  12.9345 -18.3987 1.41458
LeftFoot  -11.1617 -0.0255191 -0.330842
LeftToes  2.21007e-009 5.55039e-011 -9.07147e-011
